<svg width="23" height="25" viewBox="0 0 23 25" fill="none" xmlns="http://www.w3.org/2000/svg">
<path d="M11.1 14.8C10.7506 14.8 10.4574 14.6816 10.2206 14.4448C9.98383 14.208 9.86584 13.9153 9.86667 13.5667C9.86667 13.2172 9.98507 12.9241 10.2219 12.6873C10.4587 12.4505 10.7514 12.3325 11.1 12.3333C11.4494 12.3333 11.7426 12.4517 11.9794 12.6885C12.2162 12.9253 12.3342 13.218 12.3333 13.5667C12.3333 13.9161 12.2149 14.2092 11.9781 14.446C11.7413 14.6828 11.4486 14.8008 11.1 14.8ZM6.16667 14.8C5.81722 14.8 5.5241 14.6816 5.2873 14.4448C5.0505 14.208 4.93251 13.9153 4.93333 13.5667C4.93333 13.2172 5.05173 12.9241 5.28853 12.6873C5.52533 12.4505 5.81805 12.3325 6.16667 12.3333C6.51611 12.3333 6.80923 12.4517 7.04603 12.6885C7.28283 12.9253 7.40082 13.218 7.4 13.5667C7.4 13.9161 7.2816 14.2092 7.0448 14.446C6.808 14.6828 6.51529 14.8008 6.16667 14.8ZM16.0333 14.8C15.6839 14.8 15.3908 14.6816 15.154 14.4448C14.9172 14.208 14.7992 13.9153 14.8 13.5667C14.8 13.2172 14.9184 12.9241 15.1552 12.6873C15.392 12.4505 15.6847 12.3325 16.0333 12.3333C16.3828 12.3333 16.6759 12.4517 16.9127 12.6885C17.1495 12.9253 17.2675 13.218 17.2667 13.5667C17.2667 13.9161 17.1483 14.2092 16.9115 14.446C16.6747 14.6828 16.382 14.8008 16.0333 14.8ZM11.1 19.7333C10.7506 19.7333 10.4574 19.6149 10.2206 19.3781C9.98383 19.1413 9.86584 18.8486 9.86667 18.5C9.86667 18.1506 9.98507 17.8574 10.2219 17.6206C10.4587 17.3838 10.7514 17.2658 11.1 17.2667C11.4494 17.2667 11.7426 17.3851 11.9794 17.6219C12.2162 17.8587 12.3342 18.1514 12.3333 18.5C12.3333 18.8494 12.2149 19.1426 11.9781 19.3794C11.7413 19.6162 11.4486 19.7342 11.1 19.7333ZM6.16667 19.7333C5.81722 19.7333 5.5241 19.6149 5.2873 19.3781C5.0505 19.1413 4.93251 18.8486 4.93333 18.5C4.93333 18.1506 5.05173 17.8574 5.28853 17.6206C5.52533 17.3838 5.81805 17.2658 6.16667 17.2667C6.51611 17.2667 6.80923 17.3851 7.04603 17.6219C7.28283 17.8587 7.40082 18.1514 7.4 18.5C7.4 18.8494 7.2816 19.1426 7.0448 19.3794C6.808 19.6162 6.51529 19.7342 6.16667 19.7333ZM16.0333 19.7333C15.6839 19.7333 15.3908 19.6149 15.154 19.3781C14.9172 19.1413 14.7992 18.8486 14.8 18.5C14.8 18.1506 14.9184 17.8574 15.1552 17.6206C15.392 17.3838 15.6847 17.2658 16.0333 17.2667C16.3828 17.2667 16.6759 17.3851 16.9127 17.6219C17.1495 17.8587 17.2675 18.1514 17.2667 18.5C17.2667 18.8494 17.1483 19.1426 16.9115 19.3794C16.6747 19.6162 16.382 19.7342 16.0333 19.7333ZM2.46667 24.6667C1.78834 24.6667 1.20744 24.4249 0.723968 23.9415C0.240502 23.458 -0.000820128 22.8775 2.09395e-06 22.2V4.93333C2.09395e-06 4.255 0.241735 3.6741 0.725202 3.19063C1.20867 2.70717 1.78916 2.46584 2.46667 2.46667H3.7V0H6.16667V2.46667H16.0333V0H18.5V2.46667H19.7333C20.4117 2.46667 20.9926 2.7084 21.476 3.19187C21.9595 3.67533 22.2008 4.25582 22.2 4.93333V22.2C22.2 22.8783 21.9583 23.4592 21.4748 23.9427C20.9913 24.4262 20.4108 24.6675 19.7333 24.6667H2.46667ZM2.46667 22.2H19.7333V9.86667H2.46667V22.2Z" fill="currentColor"/>
</svg>
