<svg width="16" height="18" viewBox="0 0 16 18" fill="none" xmlns="http://www.w3.org/2000/svg">
<path d="M9.91667 3.3609L15.3333 3.3609C15.5101 3.3609 15.6797 3.29019 15.8047 3.16433C15.9298 3.03847 16 2.86776 16 2.68977C16 2.51178 15.9298 2.34107 15.8047 2.21521C15.6797 2.08935 15.5101 2.01864 15.3333 2.01864L9.91667 2.01864C9.7698 1.4412 9.4362 0.929379 8.96846 0.563882C8.50072 0.198386 7.92545 -3.5295e-07 7.33333 -3.78832e-07C6.74122 -4.04714e-07 6.16595 0.198386 5.69821 0.563882C5.23047 0.929379 4.89687 1.4412 4.75 2.01864L0.666667 2.01864C0.489857 2.01864 0.320287 2.08935 0.195262 2.21521C0.070238 2.34107 -1.09793e-07 2.51177 -1.17574e-07 2.68977C-1.25354e-07 2.86776 0.070238 3.03847 0.195262 3.16433C0.320287 3.29019 0.489857 3.36089 0.666667 3.36089L4.75 3.3609C4.89687 3.93834 5.23047 4.45016 5.69821 4.81566C6.16595 5.18115 6.74122 5.37954 7.33333 5.37954C7.92545 5.37954 8.50072 5.18115 8.96846 4.81566C9.4362 4.45016 9.7698 3.93834 9.91667 3.3609ZM6 2.68977C6 2.4243 6.0782 2.16479 6.22471 1.94405C6.37122 1.72332 6.57945 1.55128 6.82309 1.44969C7.06672 1.3481 7.33481 1.32152 7.59345 1.37331C7.85209 1.4251 8.08967 1.55294 8.27614 1.74065C8.46261 1.92837 8.5896 2.16754 8.64105 2.42791C8.69249 2.68828 8.66609 2.95816 8.56517 3.20343C8.46426 3.44869 8.29336 3.65832 8.07409 3.80581C7.85483 3.9533 7.59704 4.03202 7.33333 4.03202C6.97971 4.03202 6.64057 3.89061 6.39052 3.63888C6.14048 3.38716 6 3.04576 6 2.68977ZM13.9167 9.40103L15.3333 9.40103C15.5101 9.40103 15.6797 9.33033 15.8047 9.20447C15.9298 9.0786 16 8.9079 16 8.72991C16 8.55191 15.9298 8.38121 15.8047 8.25535C15.6797 8.12949 15.5101 8.05878 15.3333 8.05878L13.9167 8.05878C13.7698 7.48133 13.4362 6.96952 12.9685 6.60402C12.5007 6.23852 11.9254 6.04014 11.3333 6.04014C10.7412 6.04014 10.1659 6.23852 9.69821 6.60402C9.23047 6.96952 8.89687 7.48133 8.75 8.05878L0.666667 8.05878C0.489856 8.05878 0.320286 8.12949 0.195262 8.25535C0.0702377 8.38121 -3.73816e-07 8.55191 -3.81596e-07 8.72991C-3.89377e-07 8.9079 0.0702377 9.0786 0.195262 9.20447C0.320286 9.33033 0.489856 9.40103 0.666667 9.40103L8.75 9.40103C8.89687 9.97848 9.23047 10.4903 9.69821 10.8558C10.1659 11.2213 10.7412 11.4197 11.3333 11.4197C11.9254 11.4197 12.5007 11.2213 12.9685 10.8558C13.4362 10.4903 13.7698 9.97848 13.9167 9.40103ZM10 8.72991C10 8.46443 10.0782 8.20492 10.2247 7.98419C10.3712 7.76346 10.5795 7.59142 10.8231 7.48983C11.0667 7.38823 11.3348 7.36165 11.5935 7.41345C11.8521 7.46524 12.0897 7.59307 12.2761 7.78079C12.4626 7.96851 12.5896 8.20767 12.641 8.46805C12.6925 8.72842 12.6661 8.9983 12.5652 9.24357C12.4643 9.48883 12.2934 9.69846 12.0741 9.84595C11.8548 9.99344 11.597 10.0722 11.3333 10.0722C10.9797 10.0722 10.6406 9.93074 10.3905 9.67902C10.1405 9.4273 10 9.08589 10 8.72991ZM4.66667 17.4545C5.25787 17.454 5.83219 17.256 6.29966 16.8917C6.76714 16.5274 7.10137 16.0172 7.25 15.4412L15.3333 15.4412C15.5101 15.4412 15.6797 15.3705 15.8047 15.2446C15.9298 15.1187 16 14.948 16 14.77C16 14.5921 15.9298 14.4213 15.8047 14.2955C15.6797 14.1696 15.5101 14.0989 15.3333 14.0989L7.25 14.0989C7.10313 13.5215 6.76953 13.0097 6.30179 12.6442C5.83405 12.2787 5.25878 12.0803 4.66667 12.0803C4.07455 12.0803 3.49928 12.2787 3.03154 12.6442C2.5638 13.0097 2.2302 13.5215 2.08333 14.0989L0.666666 14.0989C0.489856 14.0989 0.320286 14.1696 0.195261 14.2955C0.0702375 14.4213 -6.37839e-07 14.592 -6.45619e-07 14.77C-6.53399e-07 14.948 0.0702375 15.1187 0.195261 15.2446C0.320286 15.3705 0.489856 15.4412 0.666666 15.4412L2.08333 15.4412C2.23196 16.0172 2.56619 16.5274 3.03367 16.8917C3.50115 17.256 4.07546 17.454 4.66667 17.4545ZM3.33333 14.77C3.33333 14.5046 3.41153 14.2451 3.55804 14.0243C3.70455 13.8036 3.91279 13.6316 4.15642 13.53C4.40006 13.4284 4.66815 13.4018 4.92679 13.4536C5.18543 13.5054 5.423 13.6332 5.60947 13.8209C5.79594 14.0086 5.92293 14.2478 5.97438 14.5082C6.02583 14.7686 5.99942 15.0384 5.89851 15.2837C5.79759 15.529 5.62669 15.7386 5.40743 15.8861C5.18816 16.0336 4.93037 16.1123 4.66667 16.1123C4.31304 16.1123 3.9739 15.9709 3.72386 15.7192C3.47381 15.4674 3.33333 15.126 3.33333 14.77Z" fill="currentColor"/>
</svg>
