<svg width="22" height="22" viewBox="0 0 22 22" fill="none" xmlns="http://www.w3.org/2000/svg">
<path d="M11.3888 0C9.32674 0.000365931 7.30343 0.541279 5.53472 1.56504C3.76602 2.5888 2.31827 4.05701 1.34591 5.81304C0.373549 7.56907 -0.08695 9.54707 0.0135348 11.536C0.11402 13.525 0.771719 15.4503 1.91648 17.1066C3.06123 18.7629 4.6501 20.088 6.51361 20.9406C8.37711 21.7933 10.4453 22.1414 12.4977 21.948C14.55 21.7545 16.5095 21.0266 18.167 19.8421C19.8246 18.6575 21.118 17.0606 21.9095 15.2218C22.2979 14.3198 21.3673 13.4134 20.4309 13.7808C18.8262 14.4085 17.0443 14.4733 15.3952 13.9639C13.7461 13.4544 12.334 12.403 11.4045 10.9923C10.475 9.58167 10.0868 7.90105 10.3074 6.24267C10.5281 4.58428 11.3436 3.05301 12.6122 1.9151L12.6999 1.8271C13.3276 1.1341 12.8286 0.00880002 11.8365 0.00880002H11.5335L11.456 0.00219997L11.3877 0H11.3888Z" fill="currentColor"/>
</svg>
