<svg width="23" height="25" viewBox="0 0 23 25" fill="none" xmlns="http://www.w3.org/2000/svg">
<path d="M18.7057 17.3385C19.6873 17.3385 20.6287 17.7299 21.3228 18.4267C22.0169 19.1234 22.4068 20.0685 22.4068 21.0538C22.4068 22.0392 22.0169 22.9842 21.3228 23.681C20.6287 24.3778 19.6873 24.7692 18.7057 24.7692C17.7241 24.7692 16.7827 24.3778 16.0886 23.681C15.3945 22.9842 15.0045 22.0392 15.0045 21.0538C15.0045 20.0685 15.3945 19.1234 16.0886 18.4267C16.7827 17.7299 17.7241 17.3385 18.7057 17.3385ZM15.6214 2.47692C17.0938 2.47692 18.5059 3.06408 19.5471 4.10924C20.5882 5.15439 21.1731 6.57193 21.1731 8.05C21.1731 9.52807 20.5882 10.9456 19.5471 11.9908C18.5059 13.0359 17.0938 13.6231 15.6214 13.6231H6.98539C6.16739 13.6231 5.38289 13.9493 4.80447 14.5299C4.22605 15.1106 3.9011 15.8981 3.9011 16.7192C3.9011 17.5404 4.22605 18.3279 4.80447 18.9085C5.38289 19.4892 6.16739 19.8154 6.98539 19.8154H12.5371C12.8643 19.8154 13.1781 19.9459 13.4095 20.1781C13.6409 20.4104 13.7708 20.7254 13.7708 21.0538C13.7708 21.3823 13.6409 21.6973 13.4095 21.9296C13.1781 22.1618 12.8643 22.2923 12.5371 22.2923H6.98539C5.51298 22.2923 4.10088 21.7051 3.05973 20.66C2.01858 19.6148 1.43367 18.1973 1.43367 16.7192C1.43367 15.2412 2.01858 13.8236 3.05973 12.7785C4.10088 11.7333 5.51298 11.1462 6.98539 11.1462H15.6214C16.4394 11.1462 17.2239 10.82 17.8023 10.2393C18.3807 9.65867 18.7057 8.87115 18.7057 8.05C18.7057 7.22885 18.3807 6.44133 17.8023 5.86069C17.2239 5.28005 16.4394 4.95385 15.6214 4.95385H10.0697C9.74248 4.95385 9.42868 4.82337 9.19731 4.59111C8.96595 4.35885 8.83597 4.04384 8.83597 3.71538C8.83597 3.38692 8.96595 3.07192 9.19731 2.83966C9.42868 2.6074 9.74248 2.47692 10.0697 2.47692H15.6214ZM3.9011 0C4.88271 0 5.82411 0.391441 6.51821 1.08821C7.21231 1.78498 7.60225 2.73 7.60225 3.71538C7.60225 4.70077 7.21231 5.64579 6.51821 6.34256C5.82411 7.03933 4.88271 7.43077 3.9011 7.43077C2.91949 7.43077 1.97809 7.03933 1.28399 6.34256C0.589893 5.64579 0.199951 4.70077 0.199951 3.71538C0.199951 2.73 0.589893 1.78498 1.28399 1.08821C1.97809 0.391441 2.91949 0 3.9011 0Z" fill="currentColor"/>
</svg>
