<svg width="33" height="34" viewBox="0 0 33 34" fill="none" xmlns="http://www.w3.org/2000/svg">
<path d="M16.3631 8.27955C15.4897 8.27955 14.636 8.53853 13.9098 9.02374C13.1836 9.50895 12.6176 10.1986 12.2834 11.0055C11.9492 11.8123 11.8618 12.7002 12.0321 13.5568C12.2025 14.4134 12.6231 15.2002 13.2406 15.8177C13.8582 16.4353 14.645 16.8558 15.5016 17.0262C16.3582 17.1966 17.246 17.1092 18.0529 16.7749C18.8598 16.4407 19.5494 15.8747 20.0346 15.1486C20.5198 14.4224 20.7788 13.5687 20.7788 12.6953C20.7753 11.5253 20.309 10.4041 19.4816 9.57676C18.6543 8.7494 17.5331 8.28305 16.3631 8.27955ZM25.8967 12.6953C25.8944 13.1079 25.8641 13.5199 25.8062 13.9284L28.4937 16.0325C28.6108 16.1292 28.6896 16.2643 28.7162 16.4137C28.7428 16.5632 28.7154 16.7172 28.6389 16.8483L26.0965 21.2376C26.0192 21.3675 25.8986 21.4661 25.7558 21.5158C25.6131 21.5656 25.4573 21.5634 25.316 21.5097L22.156 20.2402C21.498 20.7469 20.7779 21.1674 20.0132 21.4915L19.5408 24.8464C19.5143 24.9967 19.4365 25.1331 19.3206 25.2323C19.2047 25.3316 19.058 25.3876 18.9054 25.3906H13.8207C13.6709 25.3877 13.5265 25.3341 13.4112 25.2386C13.2958 25.143 13.2162 25.0112 13.1854 24.8646L12.7129 21.5097C11.9461 21.1894 11.2255 20.7682 10.5701 20.2573L7.4101 21.5268C7.26885 21.5806 7.11316 21.5828 6.97041 21.5332C6.82766 21.4835 6.70699 21.3851 6.62962 21.2553L4.08724 16.8666C4.01072 16.7355 3.9833 16.5814 4.0099 16.432C4.03649 16.2825 4.11536 16.1474 4.23241 16.0507L6.91995 13.9466C6.86263 13.5319 6.83239 13.1139 6.82943 12.6953C6.83173 12.2827 6.86197 11.8707 6.91995 11.4622L4.23241 9.3581C4.11536 9.26145 4.03649 9.12632 4.0099 8.97687C3.9833 8.82742 4.01072 8.67339 4.08724 8.54229L6.62962 4.15302C6.70691 4.02309 6.82754 3.92457 6.97029 3.87479C7.11305 3.82502 7.26879 3.82718 7.4101 3.8809L10.5701 5.15043C11.2281 4.64373 11.9482 4.22322 12.7129 3.89912L13.1854 0.544243C13.2118 0.393968 13.2896 0.257541 13.4055 0.158274C13.5214 0.0590076 13.6681 0.00306274 13.8207 0H18.9054C19.0552 0.00291525 19.1996 0.0565169 19.315 0.152055C19.4304 0.247593 19.5099 0.379424 19.5408 0.526027L20.0132 3.8809C20.781 4.20103 21.5025 4.62222 22.1587 5.13332L25.316 3.86379C25.4573 3.81002 25.613 3.80778 25.7557 3.85745C25.8985 3.90712 26.0191 4.00552 26.0965 4.13536L28.6389 8.52463C28.7154 8.65572 28.7428 8.80976 28.7162 8.95921C28.6896 9.10866 28.6108 9.24379 28.4937 9.34044L25.8062 11.4445C25.8635 11.8591 25.8937 12.2769 25.8967 12.6953Z" fill="currentColor"/>
</svg>
